<svg xmlns="http://www.w3.org/2000/svg" width="72" height="30" fill="none" xmlns:v="https://vecta.io/nano"><g clip-path="url(#A)" fill="#0a1727"><path d="M30.7 16.031c0 3.327-2.603 5.779-5.797 5.779s-5.797-2.452-5.797-5.779c0-3.351 2.603-5.779 5.797-5.779S30.7 12.68 30.7 16.031zm-2.538 0c0-2.079-1.508-3.502-3.259-3.502s-3.259 1.422-3.259 3.502c0 2.058 1.509 3.502 3.259 3.502s3.259-1.446 3.259-3.502zm15.043 0c0 3.327-2.603 5.779-5.797 5.779s-5.797-2.452-5.797-5.779c0-3.348 2.603-5.779 5.797-5.779s5.797 2.428 5.797 5.779zm-2.538 0c0-2.079-1.508-3.502-3.259-3.502s-3.259 1.422-3.259 3.502c0 2.058 1.508 3.502 3.259 3.502s3.259-1.446 3.259-3.502zm14.524-5.43v10.374c0 4.268-2.517 6.011-5.492 6.011-2.801 0-4.486-1.873-5.122-3.405l2.209-.92c.393.941 1.357 2.05 2.91 2.05 1.904 0 3.085-1.175 3.085-3.387v-.831h-.089c-.568.701-1.662 1.313-3.043 1.313-2.889 0-5.536-2.517-5.536-5.755 0-3.262 2.647-5.799 5.536-5.799 1.378 0 2.473.612 3.043 1.292h.089v-.941h2.41V10.6zm-2.23 5.45c0-2.035-1.357-3.522-3.085-3.522-1.751 0-3.218 1.488-3.218 3.522 0 2.014 1.467 3.481 3.218 3.481 1.727 0 3.085-1.467 3.085-3.481zm6.202-11.53v16.935h-2.475V4.521h2.475zm9.645 13.412l1.97 1.313c-.636.941-2.168 2.561-4.815 2.561-3.283 0-5.734-2.538-5.734-5.779 0-3.436 2.472-5.779 5.45-5.779 2.999 0 4.466 2.387 4.945 3.676l.263.657-7.725 3.199c.591 1.159 1.511 1.751 2.801 1.751s2.189-.636 2.845-1.6zm-6.063-2.079l5.164-2.144c-.284-.722-1.139-1.224-2.144-1.224-1.29 0-3.085 1.139-3.02 3.369zM9.737 14.528v-2.452h8.262c.081.427.122.933.122 1.48 0 1.839-.503 4.114-2.123 5.734-1.576 1.641-3.59 2.517-6.258 2.517-4.945 0-9.103-4.028-9.103-8.973S4.795 3.861 9.74 3.861c2.736 0 4.684 1.073 6.149 2.472l-1.73 1.73c-1.05-.985-2.472-1.751-4.421-1.751-3.611 0-6.435 2.91-6.435 6.521s2.824 6.521 6.435 6.521c2.342 0 3.676-.941 4.531-1.795.693-.693 1.149-1.683 1.329-3.035l-5.859.003z" fill-opacity=".8"/></g><defs><clipPath id="A"><path fill="#fff" transform="translate(.551)" d="M0 0h70.625v30H0z"/></clipPath></defs></svg>