<?xml version="1.0" encoding="utf-8"?>
<!-- Generator: Adobe Illustrator 27.1.1, SVG Export Plug-In . SVG Version: 6.00 Build 0)  -->
<svg version="1.1" id="Layer_1" xmlns="http://www.w3.org/2000/svg" xmlns:xlink="http://www.w3.org/1999/xlink" x="0px" y="0px"
	 viewBox="0 0 600 120.6" style="enable-background:new 0 0 600 120.6;" xml:space="preserve">
<style type="text/css">
	.st0{fill:#0F3D63;}
	.st1{fill:#25A9E0;}
</style>
<g>
	<path class="st0" d="M551.3,100.4c15.7,0,28.5-12.7,28.5-28.5S567,43.5,551.3,43.5c-15.7,0-28.5,12.8-28.5,28.5
		S535.6,100.4,551.3,100.4z M551.3,23.3c26.9,0,48.7,21.8,48.7,48.7c0,26.9-21.8,48.7-48.7,48.7S502.6,98.8,502.6,72
		C502.6,45.1,524.4,23.3,551.3,23.3z"/>
	<path class="st0" d="M413.5,72c0,15.7,12.7,28.5,28.5,28.5s28.5-12.7,28.5-28.5S457.7,43.5,442,43.5S413.5,56.2,413.5,72z M490.7,0
		v120.6h-20.2v-9.2c-8,5.8-17.9,9.2-28.5,9.2c-26.9,0-48.7-21.8-48.7-48.7c0-26.9,21.8-48.7,48.7-48.7c10.6,0,20.5,3.4,28.5,9.2V0
		H490.7z"/>
	<path class="st0" d="M332.8,100.4c15.7,0,28.5-12.7,28.5-28.5s-12.8-28.5-28.5-28.5c-15.7,0-28.5,12.8-28.5,28.5
		S317,100.4,332.8,100.4z M381.5,72v48.7h-20.2v-9.2c-8,5.8-17.9,9.2-28.5,9.2c-18.4,0-34.4-10.2-42.7-25.2c-3.8-6.9-6-15-6-23.5
		c0-8.6,2.2-16.7,6.2-23.8c8.3-14.9,24.2-24.9,42.5-24.9c10.6,0,20.5,3.4,28.5,9.2C373.5,41.3,381.5,55.7,381.5,72z"/>
	<path class="st0" d="M173.2,72c0-16.3-8-30.7-20.2-39.5c-8-5.8-17.8-9.2-28.5-9.2c-10.6,0-20.4,3.4-28.3,9.1
		c-5.6,4-10.3,9.1-13.7,15.1C78.3,54.7,75.9,63,75.9,72s2.4,17.3,6.6,24.5c3.5,6,8.2,11.1,13.7,15.1c8,5.7,17.8,9.1,28.3,9.1
		c10.6,0,20.5-3.4,28.5-9.2v9.2h20.2V96.8V72z M124.6,100.4c-5.3,0-10.3-1.5-14.6-4c-7.6-4.5-12.9-12.5-13.7-21.7
		c-0.1-0.9-0.2-1.9-0.2-2.8s0-1.9,0.2-2.8c0.9-9.2,6.2-17.2,13.7-21.7c4.3-2.6,9.3-4,14.6-4c15.7,0,28.5,12.8,28.5,28.5
		S140.3,100.4,124.6,100.4z"/>
	<g>
		<polygon class="st0" points="210.4,120.6 185.4,120.6 256.9,23.3 281.9,23.3 		"/>
	</g>
	<polygon class="st1" points="233.8,54.8 210.6,23.3 185.6,23.3 208.7,54.8 	"/>
	<polygon class="st1" points="258.8,88.9 233.8,88.9 257.1,120.6 282.1,120.6 	"/>
	<path class="st0" d="M39.4,72V43.5h19.2V24.2v-0.9H39.4V0H19.2v23.3H0v0l14.8,20.2h4.4V72c0,16.2,7.9,30.6,20.2,39.5
		c8,5.8,17.9,9.2,28.5,9.2v-20.2C52.1,100.4,39.4,87.7,39.4,72z"/>
</g>
</svg>
